<?xml version="1.0" encoding="UTF-8"?>
<svg id="b" data-name="Layer 2" xmlns="http://www.w3.org/2000/svg" viewBox="0 0 80.08 82.35">
  <defs>
    <style>
      .d {
        fill: #0c8cba;
        stroke-width: 0px;
      }
    </style>
  </defs>
  <g id="c" data-name="Layer 1">
    <path class="d" d="M54.67,42.59l23.38-8.71c2.38-.89,2.76-4.09.65-5.51L37.34.54c-2.11-1.42-4.93.14-4.86,2.68l.74,24.94c.06,1.92-.49,3.82-1.56,5.41l-1.82,2.7c-1.07,1.6-2.62,2.82-4.42,3.49L2.03,48.48c-2.38.89-2.76,4.09-.65,5.51l41.36,27.83c2.11,1.42,4.93-.14,4.86-2.68l-.74-24.94c-.06-1.92.49-3.82,1.56-5.41l1.82-2.7c1.07-1.6,2.62-2.82,4.42-3.49Z"/>
  </g>
</svg>