
<svg xmlns="http://www.w3.org/2000/svg" viewBox="0 0 1080 1080">
  <defs>
    <style>
      .b {
        fill: #29A6BA;
        stroke-width: 0px;
      }
    </style>
  </defs>
  <path class="b" d="M367.8,493.39c19.18,0,34.95-4.58,47.3-13.69,12.36-9.16,18.53-23.98,18.49-44.54,0-11.4-2.07-20.78-6.18-28.08-4.1-7.3-9.59-13.05-16.46-17.15-6.87-4.1-14.73-6.96-23.63-8.55-9.16-1.6-18.45-2.42-27.78-2.38h-100.7v114.48l108.95-.09h0Z"/>
  <path class="b" d="M806.54,504.36c-11.66-12.79-29.38-19.18-53.14-19.18-15.55,0-28.47,2.64-38.71,7.86-10.28,5.27-18.49,11.75-24.67,19.53-6.18,7.78-10.5,15.98-13,24.67-2.51,8.68-4.02,16.46-4.45,23.28h158.33c-4.62-24.62-12.74-43.37-24.36-56.16h0Z"/>
  <path class="b" d="M432.26,582.85c-14.17-10.76-32.92-16.11-56.2-16.11h-117.2v134.35l115.13-.04h0c10.15.04,20.26-.99,30.15-3.07,9.59-2.07,18.06-5.49,25.36-10.28,7.3-4.8,13.13-11.32,17.5-19.53,4.32-8.21,6.52-18.75,6.52-31.54,0-25.1-7.08-43.07-21.25-53.78Z"/>
  <path class="b" d="M540,0C241.77,0,0,241.77,0,540s241.77,540,540,540,540-241.77,540-540S838.23,0,540,0ZM655.91,320.16h197.81v54.86h-197.81v-54.86ZM546.74,706.97c-9.59,18.06-22.51,32.79-38.75,44.19-16.24,11.45-34.73,19.87-55.51,25.36-20.91,5.49-42.47,8.25-64.07,8.21h-237.21v-489.41h230.3c23.28,0,44.54,2.07,63.76,6.18,19.22,4.1,35.64,10.84,49.33,20.22,13.69,9.37,24.32,21.82,31.88,37.37,7.56,15.55,11.32,34.73,11.32,57.59,0,24.67-5.62,45.23-16.8,61.69-11.19,16.46-27.78,29.94-49.68,40.44,30.15,8.68,52.66,23.89,67.52,45.58,14.86,21.69,22.29,47.87,22.29,78.49,0,24.67-4.8,46.05-14.39,64.11ZM696.51,690.77h0c14.6,14.17,35.64,21.25,63.07,21.25,19.66,0,36.55-4.92,50.72-14.73,14.17-9.81,22.85-20.22,26.05-31.19h85.67c-13.69,42.51-34.73,72.88-63.07,91.15-28.34,18.27-62.6,27.43-102.82,27.43-27.86,0-53.01-4.45-75.38-13.35-22.38-8.9-41.34-21.6-56.89-38.06-15.55-16.46-27.56-36.07-35.99-58.92-8.42-22.85-12.66-48-12.66-75.38s4.32-51.15,13-74c8.68-22.85,21.04-42.6,37.02-59.27,15.98-16.68,35.08-29.81,57.24-39.4,22.16-9.59,46.74-14.39,73.7-14.39,30.15,0,56.42,5.83,78.84,17.5,22.38,11.66,40.78,27.3,55.17,46.96,14.39,19.66,24.8,42.03,31.19,67.18,6.39,25.14,8.68,51.41,6.87,78.84h-255.66c1.34,31.41,9.33,54.26,23.93,68.39Z"/>
</svg>
