<?xml version="1.0" encoding="UTF-8"?>
<svg xmlns="http://www.w3.org/2000/svg" viewBox="0 0 33.84 33.84">
  <defs>
    <style>
      .d {
        fill: #29A6BA;
        stroke-width: 0px;
      }
    </style>
  </defs>
  <g id="c" data-name="Layer 1">
    <path class="d" d="M16.92,0C7.58,0,0,7.58,0,16.92s7.58,16.92,16.92,16.92,16.92-7.58,16.92-16.92c0-9.34-7.58-16.92-16.92-16.92ZM12.41,25.1h-3.71v-12h3.71v12ZM10.53,11.53c-1.21,0-2.2-.99-2.2-2.21s.98-2.21,2.2-2.21,2.2.99,2.2,2.21c0,1.22-.98,2.21-2.2,2.21ZM26.33,25.1h-3.7v-6.3c0-1.73-.66-2.69-2.02-2.69-1.49,0-2.26,1-2.26,2.69v6.3h-3.56v-12h3.56v1.62s1.07-1.98,3.62-1.98,4.37,1.55,4.37,4.77v7.6s0,0,0,0Z"/>
  </g>
</svg>
