<?xml version="1.0" encoding="UTF-8"?>
<svg id="b" data-name="Layer 2" xmlns="http://www.w3.org/2000/svg" viewBox="0 0 16.8 20.12">
  <defs>
    <style>
      .d {
        fill: #29A6BA;
        stroke-width: 0px;
      }
    </style>
  </defs>
  <g id="c" data-name="Layer 1">
    <path class="d" d="M2.93,0l.07.23c.46,1.4,1.5,2.54,2.86,3.11h0,0c-1.36.57-2.4,1.71-2.86,3.11l-.07.23-.07-.23C2.4,5.05,1.36,3.92,0,3.34h0,0C1.36,2.77,2.4,1.63,2.86.23l.07-.23Z"/>
    <path class="d" d="M11.33,3.34l.76,2.34c.46,1.4,1.5,2.54,2.86,3.11l1.85.78-1.85.78c-1.36.57-2.4,1.71-2.86,3.11l-.76,2.34-.76-2.34c-.46-1.4-1.5-2.54-2.86-3.11l-1.85-.78,1.85-.78c1.36-.57,2.4-1.71,2.86-3.11l.76-2.34Z"/>
    <path class="d" d="M5.23,13.44l.07.23c.46,1.4,1.5,2.54,2.86,3.11h0,0c-1.36.57-2.4,1.71-2.86,3.11l-.07.23-.07-.23c-.46-1.4-1.5-2.54-2.86-3.11h0,0c1.36-.57,2.4-1.71,2.86-3.11l.07-.23Z"/>
  </g>
</svg>
